# xmcd
#
# Track frame offsets:
#	150
#	14130
#	31618
#	48991
#	63149
#	76060
#	90720
#	104513
#	123145
#	133625
#
# Disc length: 2014 seconds
#
# Revision: 0
# Processed by: cddbd v1.5.1PL0 Copyright (c) Steve Scherf et al.
# Submitted via: audiograbber 1.83.01
#
DISCID=7407dc0a
DTITLE=Strait, George - Carrying Your Love With Me - Strait, George - Carrying 
DTITLE=Your Love With Me
DYEAR=1997
DGENRE=Country
TTITLE0=Round About Way
TTITLE1=Carrying Your Love With Me
TTITLE2=One Night At A Time
TTITLE3=She'll Leave You With A Smile
TTITLE4=Won't You Come Home Home (And Talk To A Stranger)
TTITLE5=Today My World Slipped Away
TTITLE6=I've Got A Funny Feeling
TTITLE7=The Nerve
TTITLE8=That's Me (Every Chance I Get)
TTITLE9=A Real Good Place To Start
EXTD=
EXTT0=
EXTT1=
EXTT2=
EXTT3=
EXTT4=
EXTT5=
EXTT6=
EXTT7=
EXTT8=
EXTT9=
PLAYORDER=
